# xmcd CD database file
#
# Track frame offsets:
#	187
#	24844
#	48182
#	69719
#	93972
#	119507
#	142212
#	164809
#	189579
#	210327
#	233854
#	244862
#	274487
#
# Disc length: 4042 seconds
#
# Revision: 1
# Processed by: cddbd v1.5.2PL0 Copyright (c) Steve Scherf et al.
# Submitted via: CDex 1.70beta2
#
DISCID=c10fc80d
DTITLE=Bill Evans_Sax - Push
DYEAR=1994
DGENRE=Jazz
TTITLE0=Push
TTITLE1=Road To Ruin
TTITLE2=If Only In Your Dreams
TTITLE3=London House
TTITLE4=Night Wing
TTITLE5=Stand Up And Do Something
TTITLE6=The Hobo
TTITLE7=You Gotta Believe
TTITLE8=Life Is Dangerous
TTITLE9=U R What U Hear
TTITLE10=A Simple Life
TTITLE11=Matter Of Time
TTITLE12=Push(Club Mix)
EXTD=YEAR: 1994
EXTT0=
EXTT1=
EXTT2=
EXTT3=
EXTT4=
EXTT5=
EXTT6=
EXTT7=
EXTT8=
EXTT9=
EXTT10=
EXTT11=
EXTT12=
PLAYORDER=
